<svg width="375" height="110" viewBox="0 0 375 110" fill="none" xmlns="http://www.w3.org/2000/svg">
<path d="M626.521 0.875603C625.878 1.01614 623.292 0.680893 622.172 0.741512C623.439 -0.736073 628.839 0.365296 626.521 0.875603ZM511.869 108.208C512.797 107.842 513.725 107.476 514.653 107.11C512.014 106.877 508.466 107.15 506.016 106.808C505.616 106.75 506.653 105.692 505.705 105.647C504.757 105.601 504.942 107.044 503.564 107.201C502.017 107.372 494.933 106.378 492.481 106.406C483.307 106.518 474.056 107.357 464.864 106.772C474.351 105.689 464.787 104.618 462.13 105.085C461.541 105.193 461.64 107.876 452.118 107.216C446.066 106.796 451.649 102.951 441.555 104.889C449.323 107.561 441.688 107.385 435.602 107.484C434.553 107.501 426.079 107.111 422.336 107.236C421.055 107.279 419.106 108.688 417.408 108.728C416.239 108.754 415.353 107.987 413.618 108.029C405.525 108.215 397.567 108.287 389.46 108.04C394.192 104.421 385.739 106.507 385.359 106.335C383.426 105.357 392.161 105.064 388.705 104.456C383.878 104.576 379.051 104.695 374.223 104.815C378.186 105.252 368.983 107.865 367.286 106.686C368.037 109.876 345.279 103.943 341.818 105.014C341.097 105.24 345.821 106.81 334.868 106.106C333.682 106.028 334.129 105.064 333.507 105.155C333.134 105.209 330.885 108.274 328.48 106.586C327.601 105.97 333.21 103.951 320.887 104.779C325.8 107.886 303.799 106.493 299.751 105.719C300.56 106.136 301.369 106.553 302.178 106.97C298.176 105.848 297.455 106.908 296.554 106.852C292.921 106.626 287.926 105.566 284.543 105.669C280.583 105.787 280.573 107.725 275.956 106.978C277.052 107.404 278.148 107.83 279.244 108.256C276.056 108.158 272.868 108.06 269.679 107.962C277.058 105.386 268.087 107.842 267.495 107.898C266.553 107.993 267.906 106.941 266.329 107.074C266.166 107.096 266.403 108.084 263.972 108.199C258.893 108.436 259.694 107.192 257.562 107.209C257.366 107.216 258.052 108.105 254.369 108.322C253.307 108.384 252.438 108.43 251.737 108.461L251.769 108.461C247.562 108.655 249.573 108.295 251.768 107.962L251.736 107.962C253.174 107.755 254.718 107.559 254.875 107.515C255.465 107.352 251.445 103.636 261.391 104.94C258.051 104.525 257.713 102.879 257.337 102.838C257.074 102.812 253.415 102.957 251.728 103.047L251.757 103.047C251.334 103.072 251.035 103.092 250.97 103.104C248.179 103.669 250.645 104.79 250.1 104.993C249.646 105.156 242.609 103.703 241.002 107.091C237.688 103.974 242.949 104.252 248.537 103.76C249.294 103.118 243.254 102.507 242.848 102.509C234.983 102.528 239.324 105.089 237.586 106.734C236.566 107.595 233.52 105.847 236.4 108.146C229.307 108.4 233.594 107.059 233.15 106.862C232.456 106.573 229.85 107.236 229.586 107.149C229.133 107.019 230.705 106.22 228.919 105.941C228.622 105.901 225.717 107.277 229.459 107.928C224.474 107.74 224.733 108.91 223.088 106.554C219.658 111.019 220.577 103.92 219.2 103.672C215.466 103.017 216.604 106.519 216.394 106.69C215.118 107.786 205.011 106.595 202.452 107.102C203.512 104.578 210.403 107.066 212.062 106.574C217.317 104.94 204.664 105.322 208.465 102.147C206.895 103.02 205.302 103.892 203.689 104.764C200.726 102.729 204.897 101.836 197.053 102.59C195.779 104.35 202.593 102.306 201.223 103.693C200.439 104.507 195.873 104.687 195.773 105.115C195.691 105.632 199.819 105.016 199.166 105.81C197.722 107.525 182.752 105.91 194.125 104.963C190.977 104.995 189.324 101.59 186.526 102.654C184.747 103.345 194.805 108.041 179.716 107.193C179.403 105.585 185.753 106.712 185.9 106.589C186.13 106.411 184.989 102.781 184.791 102.602C184.128 102.013 168.63 103.972 165.405 102.151C166.698 104.248 153.751 102.536 152.328 103.176C151.952 103.353 153.361 104.637 152.959 104.774C150.444 105.586 143.683 103.297 140.536 103.24C137.024 103.176 137.469 104.286 137.272 104.284C135.725 104.223 136.961 103.469 136.014 103.472C134.581 103.477 124.766 103.331 124.273 103.489C124.129 103.538 125.733 104.804 123.592 105.047C123.222 105.089 123.45 103.585 117.116 104.239C109.491 105.026 122.413 106.105 119.246 107.682C114.345 105.444 114.506 107.665 113.172 107.492C112.71 107.429 109.278 105.543 105.568 105.665C108.233 105.356 110.897 105.048 113.576 104.739C110.934 104.41 105.871 104.824 103.684 104.451C102.626 104.27 103.495 102.717 101.202 102.761C100.718 102.779 98.7794 106.561 104.798 104.86C105.281 106.209 102.412 105.332 101.089 105.715C100.889 105.775 100.099 108.031 98.412 106.63C97.9938 106.286 102.453 99.7041 91.0095 104.474C90.643 104.628 91.9184 105.45 91.5601 105.622C91.3123 105.737 88.4166 105.406 88.0956 105.523C87.7691 105.649 89.1682 106.547 88.7788 106.725C86.7707 107.638 84.1021 104.073 88.2776 104.341C86.8813 103.902 85.4867 103.462 84.101 103.022C85.5867 105.709 81.9214 103.78 80.0284 103.864C67.7071 104.402 75.9604 106.145 73.844 107.051C70.4632 108.506 73.0788 103.903 67.9947 105.289C67.5396 105.419 73.6049 107.367 61.7362 106.274C63.537 106.196 65.2214 106.119 66.9903 106.042C65.9772 103.442 60.6709 106.224 60.2399 106.261C55.5389 106.621 58.799 105.682 51.7823 107.025C51.1598 107.146 49.81 106.505 48.5053 106.826C43.0674 108.149 55.7414 107.622 56.1047 108.674C56.2894 109.19 42.527 109.069 42.0819 108.824C40.074 107.74 48.3127 108.342 46.7508 106.995C46.104 106.517 26.6608 107.512 22.6961 106.99C18.255 106.383 16.1057 102.858 16.1219 106.82C14.9176 102.932 13.7041 105.586 13.1262 105.559C11.7322 105.49 10.6641 105.432 9.78129 105.387C5.991 105.204 5.0236 105.238 0.188575 105.54C-1.13302 105.621 -2.24105 104.442 -2.71157 104.642C-2.98464 104.762 -2.47201 106.024 -3.81167 106.415C-5.66201 106.949 -16.83 105.655 -17.6421 104.958C-18.473 104.26 -12.9356 104.653 -13.9272 103.506C-17.9418 103.392 -21.7732 103.677 -25.8136 103.558C-27.4979 103.505 -26.6296 102.701 -27.353 102.686C-27.6509 102.676 -33.4536 103.386 -33.1994 103.682C-32.6196 104.371 -14.76 103.9 -19.4621 105.308C-20.3795 105.58 -23.5746 103.73 -23.0659 105.981C-39.0249 105.477 -54.9879 104.972 -70.9447 104.467C-61.776 102.781 -51.4621 104.283 -41.8528 104.122C-40.5329 104.102 -36.0909 104.317 -36.6284 103.18C-44.8004 102.888 -54.9467 103.484 -62.791 102.745C-63.0421 102.721 -62.1211 101.699 -63.0609 101.537C-64.8166 101.235 -70.5411 102.885 -71.4995 102.459C-71.6644 102.36 -68.4111 101.012 -69.4009 100.156C-71.9401 97.9592 -72.5872 102.826 -74.7724 102.769C-76.4545 102.723 -87.8188 100.373 -90.6471 101.86C-93.6534 103.446 -82.2799 102.778 -83.113 104.074C-90.8095 105.378 -98.6051 103.99 -105.878 104.154C-106.007 104.158 -104.889 105.173 -106.519 105.315C-109.354 105.563 -110.063 104.123 -111.458 103.893C-112.949 103.648 -118.185 103.856 -118.887 103.331C-118.976 103.262 -117.916 101.833 -117.754 101.793C-115.457 101.204 -114.654 103.058 -114.447 103.081C-113.671 103.152 -112.905 102.441 -112.191 102.483C-111.014 102.554 -110.359 103.211 -108.823 103.268C-107.758 103.31 -108.787 102.049 -107.759 102.106C-107.381 102.133 -103.299 105.013 -102.926 102.072C-102.806 101.145 -136.143 99.9611 -139.454 100.703C-136.615 101.056 -133.763 101.409 -130.88 101.762C-136.661 100.903 -143.691 103.254 -144.145 99.7774C-148.395 99.7224 -152.611 99.6673 -156.81 99.6122C-174.116 99.3857 -191.405 99.1566 -208.695 98.9227C-212.529 98.6252 -210.429 96.3921 -216.747 97.0399C-215.119 97.7522 -213.48 98.4645 -211.85 99.1768C-215.088 98.6766 -229.44 97.695 -231.765 98.1545C-232.066 98.2147 -232.483 100.236 -236.068 100.408C-239.26 100.56 -239.757 99.0449 -241.464 98.7538C-242.882 98.5136 -244.504 98.9097 -244.919 98.8258C-245.243 98.7587 -245.37 97.8323 -246.153 97.6703C-248.634 97.1695 -246.626 99.7788 -249.072 96.7824C-248.474 96.6686 -247.884 96.5548 -247.286 96.441C-250.258 96.0059 -254.335 94.6439 -249.945 93.9755C-249.187 93.8601 -249.838 94.7559 -249.274 94.7547C-227.221 94.6 -244.83 92.8485 -252.558 94.2359C-254.105 93.2053 -261.128 93.4578 -264.395 93.501C-265.326 93.5137 -265.953 93.5088 -266.036 93.45C-266.55 93.0708 -264.647 92.0102 -267.14 91.093C-267.664 90.8986 -282.536 91.6389 -277.18 89.8752C-276.075 89.5113 -268.945 89.8956 -267.227 89.8442C-271.269 87.0283 -280.75 91.0587 -281.816 90.9553C-286.118 90.5159 -273.554 88.5176 -283.242 88.1888C-290.695 87.9368 -283.696 89.8171 -286.564 90.6189C-288.173 91.0687 -296.605 88.9976 -296.375 91.6787C-299.269 91.9647 -297.575 90.5453 -297.932 90.4431C-298.284 90.3533 -303.971 91.1556 -305.819 90.5904C-306.043 90.5201 -305.339 89.1266 -305.57 89.0126C-306.018 88.8173 -311.507 89.0957 -311.728 89.2138C-311.868 89.2958 -310.56 90.5159 -311.098 90.8118C-311.725 91.1529 -317.006 90.8657 -317.296 91.2145C-317.709 91.7418 -311.187 91.3945 -312.275 92.7589C-315.279 92.4152 -320.176 93.3255 -322.159 94.4238C-321.673 94.1098 -318.761 94.0647 -317.748 94.1754C-318.225 96.1736 -324.48 96.1463 -322.341 94.5648C-323.702 95.4142 -322.774 95.8648 -323.539 96.6663C-323.739 96.8694 -325.672 96.9112 -326.043 97.2572C-326.092 97.3261 -324.098 98.08 -324.498 98.4859C-325.221 99.2192 -331.077 99.0542 -331.557 98.8618C-332.906 98.3166 -328.129 97.6569 -327.732 96.814C-327.675 96.6846 -331.737 95.0329 -331.799 94.8871C-332.036 93.322 -327.516 94.4499 -328.033 93.0407C-329.15 92.743 -330.268 92.4454 -331.386 92.1477C-327.076 90.7207 -319.098 91.4545 -317.043 89.8314C-323.434 90.3143 -330.124 90.2572 -330.11 86.6018C-330.106 85.0624 -327.348 84.1599 -327.455 83.7685C-327.861 82.3679 -331.689 83.8894 -331.83 83.8155C-331.947 83.7301 -332 83.647 -332 83.5661C-332 83.5661 -332 83.5661 -332 83.566C-331.998 82.746 -326.543 82.1555 -326.269 81.7811C-325.81 81.116 -328.24 78.3783 -328.235 77.7728C-328.151 77.6511 -324.265 77.0033 -325.576 75.9465C-326.902 74.8792 -330.305 74.8556 -330.423 74.7447C-331.074 74.1062 -325.122 73.5238 -324.946 73.1468C-324.852 72.9561 -328.048 71.7848 -328.14 71.4481C-328.22 71.1102 -325.791 70.3728 -324.835 69.3063C-324.121 68.5139 -326.199 67.9064 -325.833 67.7822C-325.572 67.6998 -319.952 67.7134 -319.674 67.5741C-319.262 67.368 -320.579 66.421 -320.388 66.1842C-320.115 65.8437 -318.302 66.1855 -318.537 65.8351C-318.713 65.574 -325.752 62.3093 -325.707 61.4373C-325.626 59.95 -318.172 63.3722 -325.108 57.5029C-325.157 57.4643 -326.844 57.8814 -326.892 57.8453C-327.933 56.7654 -322.521 55.1042 -329.139 55.3946C-316.829 53.5191 -327.608 53.1588 -325.786 50.6544C-325.082 49.6918 -320.311 49.295 -320.288 49.1505C-320.753 47.9293 -322.271 48.8764 -322.789 48.2777C-323.073 47.9431 -318.804 46.652 -319.765 45.8136C-320.263 45.3815 -324.793 45.5353 -324.981 45.451C-326.775 44.6561 -324.576 43.7999 -324.969 43.2353C-325.231 42.8568 -327.967 42.8268 -328.037 42.7586C-328.153 42.6169 -324.438 41.0874 -323.665 40.5497C-323.077 40.136 -325.284 39.4879 -324.874 39.3076C-322.402 38.2292 -317.142 40.9796 -322.21 37.1255C-322.521 36.8892 -324.437 36.9846 -324.493 36.9375C-325.678 35.8449 -322.148 35.7505 -321.517 34.8561C-320.432 33.3149 -325.507 34.1742 -321.287 33.0903C-324.452 32.0824 -326.216 32.1245 -329.92 32.4055C-319.664 31.6217 -316.044 27.632 -327.431 27.7324C-323.81 27.7946 -324.21 25.5429 -323.131 25.5034C-322.457 25.4814 -317.207 27.7202 -319.614 22.6969C-319.917 22.0694 -323.106 22.8666 -322.107 21.5823C-314.451 21.9101 -321.946 20.7651 -321.953 20.5953C-321.855 17.6363 -303.144 20.0602 -299.929 19.7232C-296.2 19.332 -292.883 17.0007 -292.072 16.9979C-289.405 16.9971 -291.618 18.1808 -291.022 18.6161C-290.416 19.0474 -282.828 16.7805 -282.451 16.9052C-280.979 17.4057 -282.473 18.8083 -282.32 18.8791C-280.498 19.7389 -270.309 18.6427 -267.455 18.9698C-267.546 18.0597 -273.27 17.9859 -269.695 16.5252C-265.528 14.8223 -265.291 18.8343 -265.182 19.0108C-264.909 19.0104 -264.635 19.0099 -264.362 19.0095C-245.544 18.9821 -226.756 18.956 -207.963 18.9241C-208.2 16.7898 -220.666 18.3949 -220.949 18.1137C-222.615 16.4496 -201.554 16.4876 -198.976 17.2412C-200.934 16.7798 -202.902 16.3183 -204.86 15.8567C-201.508 13.4038 -194.1 16.5935 -189.252 15.5107C-187.683 15.1597 -190.695 14.2122 -190.627 14.1475C-188.878 13.1948 -186.038 13.9293 -188.153 15.2087C-183.869 13.9831 -184.493 15.3358 -181.19 15.4376C-181.023 15.4419 -182.43 14.4516 -179.829 14.0411C-178.617 13.8497 -172.072 13.8466 -171.221 12.9804C-170.866 12.6158 -174.154 8.77576 -174.575 12.0808C-181.658 10.4695 -176.845 13.5868 -179.593 13.5107C-180.012 13.4934 -179.047 11.6488 -185.98 12.5166C-184.647 9.19008 -176.66 11.6781 -175.305 11.2751C-172.483 10.4469 -184.111 8.7286 -186.25 11.3214C-185.26 8.72548 -187.052 10.9715 -189.668 10.8645C-192.486 10.7483 -191.27 9.97547 -192.805 9.97103C-196.993 9.95097 -195.266 11.7838 -198.724 10.131C-195.345 15.2461 -204.649 10.8046 -207.36 9.46411C-202.949 9.20583 -198.539 8.94726 -194.127 8.68841C-194.377 8.4198 -194.626 8.1512 -194.882 7.88258C-193.721 7.92084 -192.57 7.95908 -191.395 7.9973C-191.583 8.25465 -191.771 8.51199 -191.958 8.76934C-185.962 7.09681 -184.502 8.97757 -184.011 8.99856C-177.747 9.21726 -170.438 9.20108 -164.104 9.20679C-163.159 9.20763 -163.795 7.53385 -156.836 8.84359C-156.832 8.84443 -156.827 8.84527 -156.823 8.84612C-154.663 9.26575 -156.73 10.5627 -154.22 10.3672C-151.043 6.82819 -151.148 9.65054 -150.197 9.65485C-147.477 9.65392 -145.885 8.77705 -145.619 8.76776C-142.309 8.63038 -137.44 8.77582 -133.8 8.64467C-133.732 8.63131 -135.618 7.54452 -133.263 7.86572C-132.413 7.98042 -124.98 12.6197 -118.456 11.1056C-120.14 10.7926 -121.846 10.4797 -123.542 10.1667C-121.527 10.6042 -107.581 9.43149 -110.989 8.18999C-113.098 7.43123 -118.197 10.4236 -118.761 7.54716C-114.11 8.40723 -88.4423 7.11337 -86.442 7.78109C-86.1661 7.8764 -87.8636 8.81022 -87.4823 8.92948C-87.1921 9.02036 -81.3032 8.79763 -80.5274 9.15587C-80.0637 9.36872 -82.6583 9.94148 -82.4467 10.2777C-82.2673 10.5174 -74.9181 10.915 -74.502 9.74501C-76.3015 10.2151 -81.3758 9.80648 -78.7149 8.81966C-78.3717 8.69712 -76.5992 9.45115 -76.1856 9.29565C-72.3363 7.86118 -83.8395 8.20851 -85.6335 8.19715C-78.3989 6.70483 -67.2058 8.45855 -58.8251 7.48428C-55.4373 8.45688 -63.8468 8.9754 -60.0136 9.78089C-52.063 11.4505 -57.8985 8.43374 -57.6516 8.30974C-55.679 7.32676 -48.9487 12.5892 -48.949 8.58209C-46.0626 9.18428 -46.9961 9.68982 -42.932 9.16408C-43.4699 8.88676 -44.0016 8.60944 -44.5365 8.33211C-40.0137 6.00943 -30.4727 11.8616 -31.1778 12.3085C-33.104 13.5048 -38.0851 11.6419 -38.5076 11.687C-39.1313 11.7535 -40.8809 15.8204 -47.7609 12.1872C-50.58 14.9153 -36.8418 14.0239 -43.0964 15.885C-38.8813 15.5785 -21.5059 17.4697 -19.0089 16.2715C-18.7141 16.1151 -20.0902 13.3984 -15.8208 14.7795C-13.7811 15.4372 -18.6839 15.471 -17.7531 16.0896C-16.1251 17.1695 -2.80348 17.2364 9.72856 17.0723C19.1139 16.9479 28.2928 16.6916 31.4633 16.6463C31.953 16.6429 31.7735 17.4864 32.2572 17.4783C33.6947 17.4539 39.0207 16.1929 41.5838 16.5794C36.2612 15.0218 46.6586 14.8937 49.3107 15.0637C53.3263 15.3226 53.1036 16.8068 54.8721 17.1213C61.5206 18.3334 72.0093 14.8027 77.2014 18.093C76.9369 14.824 86.2348 19.6895 90.4741 19.7151C93.7774 19.7361 98.6291 17.5692 94.1246 16.2547C99.8658 16.401 105.897 15.7866 111.264 15.5839C112.153 15.5499 110.929 16.5175 112.447 16.429C112.585 16.4139 112.774 15.4664 114.079 15.3669C124.818 14.5328 119.595 16.55 121.606 17.1403C122.732 17.4708 123.564 17.6349 124.174 17.6888C117.905 17.879 110.679 18.2565 108.75 18.2849C110.397 20.3757 122.635 17.8724 126.219 18.4324C126.343 18.4528 125.912 19.6062 126.038 19.6143C126.04 19.6143 126.043 19.6143 126.046 19.6143C127.388 19.7016 135.939 19.269 134.179 17.8956C133.703 17.5287 129.769 17.5326 125.101 17.6612C126.364 17.4023 125.42 16.1114 125.642 16.0561C128.345 15.4155 134.971 16.6708 137.323 16.8389C137.86 16.8757 137.821 16.0482 137.909 16.0461C140.045 16.2323 139.171 18.596 141.358 16.1574C145.225 19.0991 134.113 16.6007 134.893 18.5127C135.491 19.985 160.225 19.1729 160.119 16.8528C160.205 17.1009 160.547 17.4085 161.248 17.7582C162.823 18.5353 169.638 18.2855 170.862 17.8568C171.063 17.7724 170.981 15.5208 171.23 15.4998C171.86 15.4475 180.262 17.2048 183.397 15.8707C181.711 15.5568 180.011 15.2429 178.299 14.929C188.569 14.8993 186.912 14.2307 183.553 13.5609C183.383 13.555 183.218 13.4697 183.056 13.4606C180.431 12.9655 176.983 12.4894 176.952 12.3118C176.782 11.6343 194.149 11.2396 190.808 13.3319C190.355 13.6179 182.276 12.696 186.263 14.1825C186.982 14.443 192.148 14.0122 192.404 14.1762C194.243 15.2666 182.919 16.7294 184.329 18.2801C187.026 16.7997 190.622 17.5743 193.696 17.1895C195.123 17.0155 195.491 15.8862 195.665 15.8647C198.317 15.5672 196.829 16.7524 197.712 16.7219C198.201 16.7011 203.307 14.1762 202.36 17.6501C219.433 15.0756 207.123 15.0929 196.628 15.2997C199.922 14.0314 206.477 14.6358 209.317 14.3388C210.355 14.231 209.747 13.0728 211.534 12.8389C215.103 12.3583 232.554 13.6665 237.017 13.9725C234.264 14.3863 235.037 15.6474 237.204 15.5568C239.397 15.4654 237.554 13.7835 237.981 13.6017C238.481 13.4137 248.388 14.1916 250.151 13.969C242.581 14.5942 244.211 15.8501 250.7 15.9686C249.809 16.3331 248.881 16.6976 247.917 17.062C248.958 16.9244 250.258 16.9582 251.568 17.071L251.591 17.071C255.463 17.3841 260.155 18.2995 261.752 17.8775C262.093 17.7851 260.865 16.7287 261.057 16.6768C262.965 16.2241 269.463 17.2931 269.765 16.9315C270.021 16.6305 267.248 15.7476 268.276 15.3091C268.49 15.2168 271.164 16.6432 273.795 16.2873C274.771 16.1563 274.181 15.1563 274.427 15.0979C276.476 14.6132 275.269 16.3007 279.014 16.0239C281.758 15.8191 283.799 14.1679 287.593 14.7077C275.137 12.6268 285.607 13.4876 290.812 12.8428C291.647 12.7399 290.928 10.9239 295.916 11.8007C285.31 15.1033 298.944 13.5326 301.733 13.564C301.886 13.5749 301.94 14.7732 303.308 14.7902C303.424 14.7889 303.256 13.9794 304.528 13.9154C316.585 13.3108 308.876 14.2379 311.168 15.0328C312.144 15.3716 318.006 14.2171 319.585 14.1869C319.949 14.1835 319.783 15.0252 321.188 14.9901C323.673 14.9257 325.899 14.0264 327.54 13.9527C327.731 13.9483 327.741 15.276 330.851 14.8405C331.725 14.7187 332.706 14.2457 331.464 13.8659C327.343 12.6169 319.533 14.8023 314.876 13.5566C310.629 12.422 324.015 12.2932 324.711 12.2854C324.967 12.2808 322.353 12.9442 325.01 13.0705C327.278 13.1755 331.42 10.8757 334.801 11.3697C335.059 11.4063 337.762 13.3464 337.638 13.46C337.525 13.543 333.378 13.9716 333.981 14.5333C334.053 14.5973 336.689 14.5801 337.034 14.9985C337.456 15.5078 338.6 20.5104 339.163 20.635C340.608 20.9427 339.666 19.8028 340.601 19.8807C342.605 20.0449 349.557 21.5138 349.78 19.7789C348.632 19.6777 347.484 19.5766 346.336 19.4755C352.723 19.2869 349.999 18.5529 350.903 18.2261C351.877 17.8726 351.606 19.3977 353.759 19.5375C354.228 19.5683 363.237 19.2357 363.072 18.5962C358.091 19.6223 359.935 17.7351 359.705 17.7019C358.832 17.5805 357.719 18.6392 356.548 18.62C348.31 18.4676 356.615 16.7862 354.67 16.3603C354 16.217 352.668 17.1214 352.384 17.0756C351.461 16.9277 351.444 15.7462 350.828 15.8427C349.392 16.0668 351.072 17.736 350.958 17.8232C349.676 18.8715 344.644 17.5777 347.772 15.7536C345.891 15.1009 345.674 17.3122 344.182 16.4307C341.216 14.6852 345.657 15.1277 346.859 14.8352C351.173 13.78 352.454 14.6266 358.563 14.3265C360.762 14.2205 363.366 13.1424 364.387 13.0818C365.03 13.0437 371.107 16.7707 371.276 10.9224C373.637 11.4845 377.346 15.3323 379.777 15.1522C381.959 14.988 381.262 12.9202 381.465 12.8398C381.777 12.7136 384.417 12.8724 385.309 12.5786C386.355 12.2315 385.832 11.4427 387.491 11.1182C391.62 10.3128 391.515 12.4248 391.94 12.5614C396.872 14.1398 394.709 11.1395 395.802 10.8968C396.819 10.6738 411.088 11.8073 414.09 11.0424C412.868 11.4673 411.647 11.8922 410.426 12.3172C412.615 13.6309 414.93 11.4787 414.974 13.8408C415.412 10.0265 419.93 12.5685 421.286 12.4678C421.82 12.4264 421.777 11.7766 422.446 11.7475C425.059 11.6294 430.95 12.1374 432.367 11.8056C438.493 10.3772 422.818 8.04228 421.584 7.90169C424.054 7.93984 438.025 7.06354 431.599 5.24042C430.606 4.95914 428.85 6.66852 428.292 6.73621C424.519 7.18159 427.484 5.64754 427.188 5.50256C426.685 5.26858 424.203 6.75095 423.548 6.57589C423.329 6.51979 424.735 5.13275 421.135 5.10932C422.904 3.76402 433.022 4.84172 434.349 4.52436C434.821 4.41104 431.853 1.54709 440.516 4.31986C440.415 4.05369 440.314 3.78752 440.213 3.52136C445.034 3.40404 449.855 3.28672 454.675 3.1694C454.152 3.78382 451.448 5.02056 454.856 4.75365C456.819 4.5992 455.364 3.23482 455.543 3.19488C457.304 2.81591 488.479 3.2212 494.52 3.05914C496.575 3.00639 502.302 1.89893 502.739 1.87783C505.35 1.76374 514.6 2.46396 516.445 2.30592C517.597 2.2046 516.5 1.06385 517.529 1.11579C518.486 1.16567 517.497 2.27149 517.781 2.31722C520.135 2.71363 538.012 1.23692 542.259 2.27164C539.664 1.96311 526.719 4.18988 526.98 4.96813C527.037 5.0748 530.185 5.90983 530.834 5.49914C531.908 6.4535 535.585 3.53675 537.589 4.1053C537.816 4.16988 536.926 5.80408 540.501 6.09478C541.733 6.19409 544.955 4.91624 548.203 6.33769C552.9 5.64475 577.604 7.72306 579.296 5.96604C579.346 5.87334 575.867 5.27478 578.216 4.55107C581.338 3.58912 578.538 6.81715 582.179 7.08944C582.728 7.13087 592.858 6.78857 593.189 6.58854C596.254 4.7745 587.401 4.0552 587.525 3.84474C587.832 3.31465 595.187 2.98256 595.486 3.10697C595.771 3.23645 589.776 5.64315 596.983 4.7227C596.157 4.43754 595.331 4.15238 594.504 3.86723C597.893 3.30393 598.219 4.96184 599.041 5.06185C601.594 5.37855 604.352 2.85509 608.447 5.96004C609.53 6.78407 607.736 7.70387 607.872 7.82748C609.173 8.93682 610.826 5.96108 612.783 8.17553C612.93 8.3407 608.385 9.6764 616.333 9.66715C615.785 9.4554 615.238 9.24366 614.691 9.03191C615.811 8.55545 623.857 8.2606 624.939 8.37109C628.102 8.69403 625.347 10.2247 628.525 10.0372C626.483 7.94879 636.148 7.66048 635.595 9.462C636.941 7.19835 645.155 8.92986 649.014 8.97741C651.45 9.00574 656.416 8.01098 657.19 8.12517C658.133 8.26512 657.849 9.80833 659.551 10.1491C660.037 10.2463 665.102 9.1073 669.552 10.6972C670.414 11.0035 672.229 13.6175 670.628 14.2741C667.887 15.3977 662.697 13.2977 662.765 14.8439C662.846 16.4979 669.831 15.503 671.712 15.7159C680.396 16.7006 675.385 18.467 675.609 18.9997C676.191 20.2923 680.935 20.2446 681.133 20.3606C681.954 20.8759 678.594 21.905 678.544 22.6945C678.485 23.7225 683.061 25.5703 682.022 25.9185C680.534 26.4129 676.329 24.8734 676.063 24.9477C672.596 25.9504 677.354 28.3176 678.666 29.4823C679.064 29.8406 677.482 30.433 677.812 30.5378C682.841 32.1272 678.866 27.1985 682.21 27.5228C685.194 27.8119 681.358 29.3785 681.472 29.4644C681.62 29.5587 685.187 29.6381 685.746 30.1895C686.022 30.4655 676.755 33.5157 677.145 34.8762C680.102 34.5716 683.06 34.267 686.018 33.9624C686.252 35.7366 681.996 34.437 681.556 34.6207C680.67 34.9893 683.142 35.8834 683.037 36.4446C682.981 36.8016 680.083 38.0796 682.704 38.6004C683.604 38.7803 685.491 37.533 688.772 38.7989C677.364 40.4404 685.273 41.4254 685.61 42.0535C685.941 42.6816 680.496 44.1697 687.107 43.8976C687.4 47.3507 686.967 44.9894 685.089 45.5994C682.788 46.3492 688.11 47.478 679.696 46.6285C680.177 48.2447 686.939 48.1196 687.297 48.248C687.606 48.3644 686.104 49.1621 686.641 49.4307C692.984 52.545 688.628 51.1252 690.467 53.1174C690.631 53.2955 696.623 54.0256 692.063 54.3234C683.754 54.8649 680.278 52.5791 678.889 57.4799C685.039 59.598 692.48 56.4242 694.349 56.3676C697.208 56.2859 694.248 57.2896 694.6 57.5691C694.723 57.6593 697.187 57.5729 697.22 57.6522C698.984 61.3855 686.25 57.7316 682.243 58.3877C683.318 58.9455 684.393 59.5033 685.468 60.0611C684.011 60.0858 682.554 60.1105 681.097 60.1351C688.041 61.2488 681.342 60.5606 679.616 63.5886C679.228 64.2689 683.787 63.096 678.588 64.9934C682.426 65.4235 681.203 66.0435 684.676 65.1852C684.588 66.3979 676.773 67.7782 673.69 68.4053C684.586 69.7507 678.367 65.3128 687.787 67.6511C689.531 66.1468 685.037 66.4463 685.403 66.1979C686.717 65.3047 689.802 66.7147 693.516 63.5866C694.121 63.0731 691.556 61.4993 695.348 61.5695C695.767 61.5796 698.186 62.9242 698.152 63.022C697.834 64.0786 695.442 63.6866 695.344 64.1276C695.252 64.545 697.919 64.2898 697.929 64.4055C698.013 65.7284 695.704 64.9146 696.04 65.3283C696.765 66.2279 706.365 69.0597 693.84 68.2457C704.24 66.7334 695.17 66.7828 691.12 67.3638C690.087 67.5095 689.827 68.3001 688.356 68.5767C686.463 68.9349 684.246 68.5591 683.267 68.7056C682.213 68.8672 688.203 70.7256 679.543 70.182C683.953 72.033 691.734 70.0397 696.065 71.3374C704.803 73.9598 689.981 74.5494 688.437 74.8073C688.025 74.8772 689.406 75.9422 689.132 76.008C688.684 76.109 680.27 75.6291 679.442 76.5135C678.616 77.3972 682.524 76.468 682.785 77.3878C682.962 78.007 672.815 79.122 678.31 79.5367C682.097 79.8209 689.072 77.3199 690.252 79.9944C684.684 80.2248 679.116 80.4552 673.547 80.6857C676.597 81.6991 679.646 82.7126 682.696 83.7261C676.446 84.0589 671.041 82.9179 665.107 84.3851C679.377 87.6255 660.48 86.9966 660.272 87.394C660.203 87.6316 665.822 90.2712 666.726 90.7543C661.753 91.781 646.636 92.3029 655.486 95.5593C653.879 94.8234 649.994 96.6524 650.046 96.7899C650.542 98.2339 659.019 97.2835 657.639 98.5906C656.038 100.107 653.789 98.0567 651.324 98.2247C638.674 99.1001 642.157 106.637 629.469 105.464C629.722 105.732 629.975 106 630.227 106.268C616.438 105.863 602.648 105.457 588.859 105.051C583.467 107.363 569.111 108.789 562.059 108.545C560.639 108.498 553.665 107.3 553.139 107.089C552.164 106.684 557.521 106.521 555.099 105.763C554.587 105.608 542.783 105.118 543.629 106.406C544.952 106.553 549.091 105.899 549.768 106.201C554.531 108.361 518.14 106.687 516.339 107.564C517.145 107.981 517.952 108.398 518.758 108.815C516.462 108.613 514.165 108.411 511.869 108.208ZM617.216 4.54286C618.592 3.24763 622.048 4.21331 624.088 3.84711C626.907 3.33436 631.692 -1.65237 629.636 3.34146C625.496 3.74193 621.356 4.14239 617.216 4.54286ZM556.699 2.71199C559.476 3.40211 557.327 6.19275 555.05 5.0377C554.797 4.90642 552.941 1.78315 556.699 2.71199ZM585.809 3.98846C585.692 4.02556 583.292 3.95559 583.208 3.91202C581.055 2.79635 588.289 3.01359 585.809 3.98846ZM445.199 5.64182C448.258 5.51664 446.038 2.98636 444.138 4.03211C444.018 4.09851 444.997 5.64805 445.199 5.64182ZM447.375 5.7055C449.754 7.97072 454.532 3.36459 450.729 3.83365C450.36 3.88099 447.265 5.59518 447.375 5.7055ZM566.597 3.80411C566.286 4.67424 563.422 4.25888 562.198 4.0528C562.23 3.25879 565.398 3.9032 566.597 3.80411ZM493.983 4.16111C493.862 4.84497 503.817 4.79138 504.494 3.88928C502.923 4.27405 494.096 3.54656 493.983 4.16111ZM468.456 5.16176C468.708 5.27955 472.147 5.0944 472.045 4.49136C470.365 3.70271 467.319 4.62861 468.456 5.16176ZM417.715 5.20204C417.529 5.35387 420.11 9.1885 414.004 6.67161C413.107 6.30307 416.305 5.29501 415.987 5.15778C415.32 4.89021 414.793 4.76584 414.369 4.74408C417.211 4.42139 420.163 4.26703 420.449 4.49943C421.792 5.59705 417.798 5.13867 417.715 5.20204ZM391.081 8.10454C390.496 8.7316 386.756 8.4028 385.905 8.14633C385.759 8.09806 386.393 6.45139 384.709 6.57713C383.358 6.68086 385.38 8.36317 382.746 8.09764C380.084 7.83115 383.638 6.62427 383.405 6.53891C383.094 6.42703 378.978 7.19042 379.104 6.21003C379.199 5.48383 383.61 5.96775 384.7 5.81173C386.096 5.6112 384.401 4.40423 386.736 4.66038C388.202 4.82034 387.393 6.94881 387.703 7.05579C387.962 7.14198 393.087 5.90965 391.073 8.09785C391.076 8.10008 391.078 8.10231 391.081 8.10454ZM413.6 4.83929C413.814 4.76707 414.065 4.72846 414.369 4.74408C414.111 4.77336 413.854 4.80731 413.6 4.83929ZM609.196 5.48886C607.751 4.83509 612.034 3.98707 613.657 4.84394C613.687 5.53699 609.426 5.59062 609.196 5.48886ZM410.967 6.57572C406.745 6.04953 409.849 5.31171 413.6 4.83929C412.41 5.24158 412.385 6.75147 410.967 6.57572ZM530.834 5.49914C530.655 5.34077 530.542 5.09359 530.527 4.68722C530.996 5.13095 531.038 5.36961 530.834 5.49914ZM520.983 4.78965C517.609 6.03292 524.469 5.97207 524.424 5.08633C524.403 4.75196 521.118 4.74021 520.983 4.78965ZM441.275 5.52719C441.584 5.64785 436.791 9.39351 443.753 6.57738C440.034 6.14273 443.957 5.72943 443.898 5.40217C443.745 4.46154 437.501 5.37586 436.117 4.9714C435.037 6.65653 440.254 5.12969 441.267 5.52721C441.269 5.52721 441.272 5.5272 441.275 5.52719ZM343.07 7.27437C343.915 6.28658 346.6 6.59971 348.412 6.6549C347.567 7.64269 344.882 7.32956 343.07 7.27437ZM-130.951 7.5497C-118.563 6.63516 -116.928 10.6519 -128.3 9.06656C-128.526 9.03326 -131.697 7.95703 -130.951 7.5497ZM-24.4108 8.55928C-23.2371 10.3096 -27.1206 10.5928 -29.6542 9.8707C-30.2293 9.7083 -32.3623 7.93575 -29.9287 7.58801C-30.001 9.7102 -26.2603 10.5193 -24.4108 8.55928ZM408.583 7.70076C407.356 8.87032 403.57 8.04521 401.576 7.87303C402.791 6.90973 406.819 7.33811 408.583 7.70076ZM-90.1627 9.63517C-88.849 9.7674 -87.9681 8.24393 -88.1938 8.11726C-89.203 7.5362 -91.658 8.76841 -90.1627 9.63517ZM420.799 7.86265C420.973 8.56011 415.962 9.23968 415.61 7.51504C416.682 7.63817 420.674 7.42501 420.799 7.86265ZM346.487 7.79264C347.266 8.14617 343.237 8.78773 342.018 8.43758C342.114 7.69481 345.977 7.56285 346.487 7.79264ZM-69.0953 9.11229C-67.9236 9.24425 -64.9943 9.2837 -64.6712 8.66781C-64.2681 7.898 -68.5624 8.16163 -69.0953 9.11229ZM-287.088 10.4253C-287.238 10.1487 -282.7 8.15561 -280.684 8.66051C-276.857 9.62651 -286.926 10.6206 -287.088 10.4253ZM-102.552 10.4238C-106.238 8.97602 -102.147 10.378 -102.306 8.85266C-104.774 8.79831 -110.987 8.72452 -106.725 10.2234C-105.888 10.5134 -103.71 10.3253 -102.552 10.4238ZM-99.1366 10.9333C-98.7441 10.439 -96.0856 8.88052 -98.3832 8.9927C-99.4404 9.04691 -101.159 10.7783 -99.1366 10.9333ZM-258.971 9.75528C-257.22 10.4719 -260.648 10.6029 -264.35 10.5326C-267.627 10.4708 -271.095 10.2509 -271.298 10.1397C-271.529 10.0147 -271.681 9.8969 -271.767 9.79713C-272.325 10.225 -275.193 10.3014 -275.525 9.21882C-274.666 9.30837 -272.316 9.21373 -272.045 9.33379C-271.927 9.38489 -271.839 9.43283 -271.779 9.48156C-271.222 8.9654 -267.606 9.02115 -264.359 9.21894C-261.662 9.3817 -259.262 9.63975 -258.971 9.75528ZM-233.824 11.1586C-237.61 13.1489 -238.288 9.76136 -237.959 9.65252C-233.827 8.26835 -236.523 10.7649 -236.395 10.882C-236.108 11.0768 -233.178 9.91924 -233.836 11.1586C-233.832 11.1586 -233.828 11.1586 -233.824 11.1586ZM-253.823 10.3154C-253.975 10.3594 -257.15 10.2529 -257.291 10.1993C-259.9 9.05955 -250.888 9.35603 -253.823 10.3154ZM371.006 10.5065C368.728 10.1734 370.96 8.92371 372.475 9.36949C372.599 9.41346 373.016 10.8008 371.006 10.5065ZM-97.3228 10.5971C-96.7831 10.8325 -83.2885 11.7169 -84.093 9.83498C-85.241 10.0575 -100.602 9.0926 -97.3228 10.5971ZM3.64458 11.0165C1.27232 11.0033 3.85667 9.22677 5.12224 9.88773C5.59447 10.1333 4.23772 11.0188 3.64458 11.0165ZM427.559 9.46331C430.031 8.48418 429.525 11.7566 427.379 10.6386C427.295 10.5948 427.462 9.50156 427.559 9.46331ZM-15.392 10.0056C-7.17946 8.92596 -9.10603 14.5546 -19.7971 12.6596C-19.4619 12.4088 -19.127 12.158 -18.7927 11.9072C-31.1223 11.0683 -19.6373 11.511 -16.6219 11.1945C-15.4796 11.0743 -16.4444 10.1353 -15.4 9.99886C-15.3973 10.0011 -15.3947 10.0033 -15.392 10.0056ZM16.1141 11.1166C21.9078 14.048 15.2959 13.4261 9.72618 13.0974C7.72227 12.9787 5.79405 12.8983 4.63963 13.0369C6.51329 12.3065 8.61668 11.9472 9.72527 11.6281C10.6393 11.3565 10.8809 11.1139 9.72472 10.6964C9.14799 10.495 8.23436 10.2529 6.88188 9.94715C7.98888 9.91333 8.92705 9.89939 9.72429 9.90178C16.7423 9.92292 13.2526 11.2211 13.6006 11.3397C14.1543 11.4877 15.7931 10.9453 16.1141 11.1166ZM-4.70204 11.1552C-5.17232 11.272 -8.58601 10.4606 -9.84578 10.5938C-8.09657 9.2285 -1.6598 10.3613 -4.70204 11.1552ZM-207.463 10.2429C-207.751 11.3119 -208.462 12.0992 -211.177 11.6987C-210.331 11.1618 -208.608 10.7003 -207.463 10.2429ZM619.841 10.1651C621.714 10.2388 625.444 10.6358 624.299 9.5135C624.174 9.4179 619.846 9.53422 619.841 10.1651ZM-58.0786 11.4521C-57.6806 11.5834 -47.3781 11.6682 -50.9363 10.4896C-52.0092 10.1342 -61.3837 10.2884 -58.0786 11.4521ZM-111.431 11.3323C-110.547 11.3433 -107.079 11.1411 -106.995 10.8881C-106.767 10.014 -111.035 10.4955 -111.431 11.3323ZM629.292 11.2445C629.539 11.3551 635.259 11.1495 634.63 10.6318C633.434 9.65277 628.446 10.8638 629.292 11.2445ZM362.722 13.024C362.244 13.0643 361.61 11.904 361.444 11.8914C361.055 11.8754 352.302 12.336 355.644 10.8397C356.201 10.589 368.798 11.1416 370.436 11.2863C371.072 12.8795 365.69 11.3714 364.381 11.5376C364.15 11.5691 364.004 12.9031 362.726 13.0173C362.725 13.0195 362.724 13.0218 362.722 13.024ZM-221.627 11.3657C-222.014 12.3792 -232.299 13.0455 -232.182 11.8174C-228.662 11.667 -225.145 11.5164 -221.627 11.3657ZM-216.402 11.5357C-214.209 12.2535 -219.347 12.4887 -220.863 12.1717C-220.878 11.4899 -216.722 11.4307 -216.402 11.5357ZM-91.9105 15.1143C-90.8782 14.8662 -94.0528 13.3881 -93.3426 13.1005C-92.8897 12.9213 -90.5803 13.475 -89.84 13.0123C-89.6312 12.8652 -91.9926 11.4757 -92.6712 11.5359C-93.6369 11.6164 -92.7005 12.7101 -93.7533 12.7179C-97.2736 12.7423 -100.376 11.9628 -103.667 11.9818C-103.963 11.9856 -101.666 12.7576 -104.192 12.7473C-104.568 12.7472 -106.956 11.5971 -109.964 11.7684C-116.66 15.3335 -121.589 11.8356 -130.069 13.1222C-129.767 13.4578 -123.396 14.3566 -123.03 14.3898C-115.918 14.9743 -103.21 15.0358 -95.7666 15.0415C-93.8525 15.0441 -94.7785 14.29 -93.958 14.2622C-93.3107 14.2416 -94.0823 15.6385 -91.9105 15.1143ZM618.847 10.9388C619.742 12.3324 622.873 11.4445 624.873 11.5134C624.167 10.2562 620.802 11.2449 618.847 10.9388ZM-170.223 12.6246C-169.194 12.5707 -166.13 12.9907 -165.854 12.5707C-165.54 12.0222 -169.986 11.6764 -170.223 12.6246ZM313.36 12.7063C313.264 12.7445 310.851 12.6736 310.76 12.6298C308.604 11.5137 315.838 11.7316 313.36 12.7063ZM255.664 12.5293C254.01 12.6877 252.344 13.0617 251.584 12.2955L251.557 12.2956C251.482 12.2146 251.416 12.1208 251.361 12.0126C251.421 12.0219 251.486 12.0294 251.557 12.0353L251.583 12.0353C252.893 12.1392 255.865 11.7837 255.664 12.5293ZM176.104 12.6685C176.488 14.1503 170.994 13.1957 169.936 13.0638C170.332 12.4047 175.837 11.6007 176.104 12.6685ZM-207.07 14.8959C-210.442 14.8072 -209.717 17.0526 -211.861 16.0358C-212.21 15.8639 -213.334 11.1884 -209.638 12.9413C-208.972 13.2564 -211.579 14.3666 -207.07 14.8959ZM-21.5421 12.6134C-22.3903 13.5943 -25.0646 13.3044 -26.8808 13.2266C-26.4751 12.498 -22.8156 12.6839 -21.5421 12.6134ZM639.626 12.3494C641.207 13.7312 648.498 12.6927 646.692 11.7809C646.435 11.662 640.649 12.4001 639.626 12.3494ZM400.033 12.1859C397.034 13.2808 403.25 13.6086 405.21 12.5403C404.322 12.6115 400.235 12.1139 400.033 12.1859ZM195.225 13.4548C195.059 13.4997 191.909 13.3978 191.767 13.3443C189.162 12.2087 198.156 12.4908 195.225 13.4548ZM274.64 14.2986C273.495 15.1975 265.957 14.4856 264.266 13.5899C265.889 12.2756 276.06 13.1759 274.64 14.2986ZM-193.233 14.2613C-195.623 14.3074 -197.906 14.0306 -200.112 13.6422C-199.652 12.8871 -193.471 13.6971 -193.233 14.2613ZM183.553 13.5609C183.383 13.555 183.218 13.4697 183.056 13.4606C183.225 13.4925 183.391 13.5289 183.553 13.5609ZM-139.506 14.7892C-137.513 15.0871 -137.921 13.7033 -138.047 13.6609C-139.547 13.213 -141.782 14.4529 -139.506 14.7892ZM621.15 12.9897C621.849 14.2375 625.232 13.2634 627.179 13.5576C626.613 12.5721 622.717 12.8562 621.15 12.9897ZM24.5861 13.6695C27.1349 15.022 16.7489 16.6015 14.7071 15.7301C14.4698 14.8936 24.2082 13.4844 24.5861 13.6695ZM409.354 14.0444C409.558 15.0227 413.874 13.8349 412.956 13.374C412.374 13.0807 409.233 13.4366 409.354 14.0444ZM9.54228 15.1625C8.59264 15.4617 6.33708 14.4973 7.13023 13.9083C8.15086 13.1534 9.78941 15.0768 9.54228 15.1625ZM-77.1491 15.9832C-76.7306 16.1326 -71.0449 15.1265 -73.3944 14.129C-75.0247 13.4358 -75.2826 14.8505 -75.6654 14.8548C-76.0852 14.8504 -85.2236 13.1218 -77.1491 15.9832ZM82.2176 14.484C80.1001 14.8618 77.4745 14.4268 75.2312 14.4553C76.1419 13.8495 81.3258 13.6808 82.2176 14.484ZM392.7 14.3327C393.221 14.7276 407.405 14.9435 399.346 13.738C398.876 13.6699 391.117 13.1366 392.7 14.3327ZM-207.07 14.8959C-206.648 14.9071 -206.159 14.954 -205.591 15.0508C-206.155 15.0126 -206.645 14.9461 -207.07 14.8959ZM-168.863 15.0483C-169.641 15.7607 -165.736 15.951 -164.586 15.5718C-164.211 14.7014 -168.778 14.9487 -168.863 15.0483ZM75.0615 15.4491C73.7568 15.8577 71.4755 15.4243 69.8334 15.4729C70.1357 14.8105 74.4919 14.7768 75.0615 15.4491ZM165.879 16.1224C163.321 15.7312 160.139 15.9151 160.091 16.7253C160.036 16.5987 159.913 16.4644 159.707 16.3295C159.501 16.1959 156.762 16.5751 155.565 16.2996C148.419 14.6637 183.16 15.3097 163.035 17.6156C163.986 17.1179 164.934 16.6202 165.879 16.1224ZM284.841 16.1892C286.299 17.173 290.378 15.9308 289.318 15.5442C288.58 15.2794 283.381 15.1987 284.841 16.1892ZM228.821 16.8651C229.2 17.0406 233.271 16.3441 233.356 15.8245C231.001 15.2809 226.868 16.0503 228.821 16.8651ZM296.043 17.3262C296.958 17.4736 298.122 15.8816 298.015 15.8124C297.084 15.2334 294.506 16.4433 296.043 17.3262ZM-200.106 19.1814C-198.748 19.6371 -194.395 18.487 -193.466 17.437C-193.291 17.6401 -192.82 17.905 -191.948 18.2228C-191.95 18.2228 -191.953 18.2228 -191.955 18.2228C-190.79 18.6482 -155.747 19.1119 -179.25 17.0894C-179.99 17.0245 -178.961 17.9672 -181.975 17.8009C-182.174 17.7888 -182.273 17.0192 -182.883 16.9817C-184.286 16.9004 -191.76 16.4152 -193.285 17.0342C-193.297 16.8916 -193.395 16.7559 -193.601 16.6313C-195.445 15.5212 -201.163 18.8301 -200.106 19.1814ZM220.935 17.0168C221.75 17.3009 224.189 17.0269 224.505 16.3474C223.229 16.0163 219.093 16.354 220.935 17.0168ZM393.145 17.1183C394.779 17.6743 398.917 16.6235 397.665 16.0705C396.897 15.7303 391.26 16.4801 393.145 17.1183ZM246.319 16.6153C236.885 15.8296 244.092 16.6842 242.65 17.6828C243.92 17.3269 245.144 16.9711 246.319 16.6153ZM-243.436 16.592C-241.935 16.822 -243.711 18.7861 -245.341 17.719C-245.852 17.3801 -244.282 16.4671 -243.436 16.592ZM-310.905 17.1847C-309.63 18.9273 -315.858 17.9033 -313.43 16.708C-313.318 16.6677 -310.997 17.1184 -310.905 17.1847ZM-263.751 17.9036C-262.721 16.7177 -262.094 16.5773 -259.216 16.8721C-263.462 17.204 -259.516 18.2555 -263.751 17.9036ZM160.119 16.8528C160.102 16.8049 160.088 16.7695 160.091 16.7253C160.109 16.7689 160.117 16.8102 160.119 16.8528ZM304.85 17.0034C306.024 18.0066 309.31 17.9274 308.329 16.9173C308.235 16.8238 305.329 16.26 304.85 17.0034ZM-193.466 17.437C-193.622 17.257 -193.543 17.1405 -193.285 17.0342C-193.273 17.1685 -193.339 17.2953 -193.466 17.437ZM287.206 17.8505C287.322 17.1005 282.319 16.8168 282.119 16.9052C279.25 18.2102 285.14 17.899 287.206 17.8505ZM426.217 18.12C426.475 18.0413 424.809 16.1083 423.79 16.8683C423.001 17.4579 425.252 18.4193 426.217 18.12ZM-273.466 18.3841C-275.051 18.3824 -277.28 18.3828 -277.692 17.4633C-276.631 17.6046 -273.434 17.7094 -273.466 18.3841ZM-308.468 18.4471C-306.595 17.3662 -302.319 17.3695 -299.588 17.5478C-299.538 18.9706 -306.71 18.1125 -308.468 18.4471ZM-204.395 18.6499C-204.274 18.7078 -200.29 19.1333 -200.838 18.1808C-201.637 16.784 -205.513 18.1317 -204.395 18.6499ZM418.503 17.1049C416.728 17.7636 420.818 19.7728 422.69 18.2128C423.651 17.414 418.802 16.9946 418.503 17.1049ZM315.113 18.3031C317.456 17.7482 311.646 16.7756 310.836 17.7727C311.915 17.8509 314.281 18.4995 315.113 18.3031ZM235.401 19.4403C242.837 22.3006 238.799 17.0675 237.452 17.5303C237.238 17.5964 235.216 19.3731 235.401 19.4403ZM657.963 18.0609C659.008 17.6601 655.107 16.2207 654.604 17.1732C654.293 17.7693 657.294 18.3163 657.963 18.0609ZM124.174 17.6888C124.485 17.6793 124.795 17.6696 125.101 17.6612C124.871 17.7083 124.569 17.7238 124.174 17.6888ZM336.395 22.1165C331.19 18.0696 331.74 21.1942 331.289 21.1779C330.312 21.1358 328.042 20.0429 326.202 20.2258C328.309 19.7659 330.415 19.306 332.522 18.8461C330.857 18.556 316.393 17.0862 316.091 17.7442C315.659 18.6813 320.208 18.3803 320.341 18.4626C320.532 18.5798 321.247 21.1821 321.67 21.2804C322.364 21.4376 334.456 21.4724 336.395 22.1165ZM250.831 18.9628C249.689 18.6558 249.337 17.625 248.782 17.8727C248.59 17.9574 248.565 18.9413 247.901 19.1972C248.918 19.1191 249.895 19.041 250.831 18.9628ZM345.7 18.4559C347.173 19.6558 340.574 19.2097 340.362 19.0754C339.232 18.2623 344.495 17.4758 345.7 18.4559ZM289.704 18.7194C289.945 18.7892 295.013 19.1565 294.971 18.4895C293.63 17.9831 286.854 17.8457 289.704 18.7194ZM247.069 19.2659C245.422 19.1544 241.939 18.1698 242.332 19.6506C242.335 19.6506 242.337 19.6506 242.34 19.6506C243.994 19.5224 245.572 19.3941 247.069 19.2659ZM412.428 20.2434C415.731 22.5976 414.163 19.6187 411.241 18.8621C410.357 19.9228 411.886 19.8603 412.428 20.2434ZM422.989 21.9857C423.908 22.4088 433.366 21.9286 431.921 20.6824C431.407 20.2383 425.97 21.369 425.719 21.2831C425.339 21.1558 427.072 19.7719 424.171 20.0502C424.342 20.5179 422.675 21.8444 422.989 21.9857ZM415.161 21.7497C418.443 23.5389 419.174 20.2282 416.708 20.2231C415.745 20.2188 414.693 21.4916 415.161 21.7497ZM401.768 21.489C402.948 21.801 406.092 22.2538 408.256 21.1497C405.357 21.0603 402.458 20.9709 399.559 20.8815C399.226 21.5056 400.736 21.2148 401.776 21.489C401.773 21.489 401.771 21.489 401.768 21.489ZM-328.172 26.9267C-325.568 27.8652 -331.567 28.2249 -331.822 27.9943C-332.576 27.2288 -329.337 26.5076 -328.172 26.9267ZM678.359 48.0943C679.083 48.4673 679.558 49.6975 681.151 49.05C679.547 48.1439 677.943 47.2378 676.339 46.3317C675.096 48.4157 677.567 47.6829 678.359 48.0943ZM684.49 55.6917C684.264 55.7425 685.506 58.942 682.578 56.8093C680.6 55.3693 691.343 53.9457 693.285 55.3622C691.143 56.0252 686.438 55.2776 684.49 55.6917ZM703.335 69.5198C703.459 69.7749 699.377 70.1558 698.905 69.9766C696.422 69.0318 702.663 68.153 703.335 69.5198ZM690.31 68.9295C692.226 69.5481 687.985 69.9556 686.72 69.5999C686.597 69.0042 690.014 68.8394 690.31 68.9295ZM-301.791 73.295C-299.719 75.471 -297.867 70.7872 -301.055 71.7307C-301.208 71.7751 -301.879 73.1885 -301.791 73.295ZM699.349 72.7556C697.433 72.1369 701.674 71.7294 702.939 72.0852C703.057 72.6803 699.641 72.846 699.349 72.7556ZM-300.333 78.4784C-297.584 80.0443 -298.55 74.7894 -298.895 74.5776C-300.31 73.7412 -305.167 75.8035 -306.159 76.3162C-298.89 75.5279 -301.629 77.7405 -300.333 78.4784ZM-287.643 75.324C-285.091 74.7637 -291.613 73.6907 -292.859 75.1555C-291.587 75.0855 -288.372 75.4859 -287.643 75.324ZM-272.154 77.0121C-270.78 77.2006 -266.698 77.6524 -266.015 76.8259C-267.512 76.9751 -271.571 76.1615 -272.154 77.0121ZM-269.046 79.4905C-266.902 80.6146 -266.386 77.3413 -268.86 78.3155C-268.956 78.3533 -269.125 79.428 -269.046 79.4905ZM-256.99 80.6776C-255.572 81.9802 -253.972 78.8109 -256.252 78.7242C-256.932 78.7043 -257.14 80.5283 -256.99 80.6776ZM-296.89 84.1319C-294.874 84.6911 -292.279 82.4211 -296.581 82.1714C-295.069 81.8247 -293.559 81.4779 -292.047 81.1312C-297.683 79.8581 -297.268 83.0065 -298.887 82.8763C-301.147 82.6911 -300.97 80.0932 -300.516 79.2774C-302.37 80.8689 -310.246 80.8941 -314.799 81.1971C-310.798 81.8651 -304.307 83.0234 -300.357 83.4469C-299.231 83.5694 -298.135 82.857 -297.176 82.9368C-295.633 83.0685 -297.003 84.0943 -296.898 84.1319C-296.896 84.1319 -296.893 84.1319 -296.89 84.1319ZM-241.139 80.7333C-236.994 82.2101 -239.616 79.0249 -241.951 79.5914C-242.051 79.6351 -241.241 80.6972 -241.139 80.7333ZM704.85 82.4219C699.321 81.0999 703.335 79.3297 691.778 82.0264C696.632 80.1226 692.044 80.6624 692.991 79.8961C693.751 79.2898 696.601 79.7864 694.943 78.5703C697.123 79.8933 706.576 79.5114 706.998 79.7261C706.994 79.7261 706.99 79.7262 706.986 79.7262C707.239 79.8534 706.614 82.8423 704.85 82.4219ZM-272.136 85.3376C-270.755 89.2011 -270.214 83.0696 -267.503 86.2722C-263.89 81.6238 -277.479 86.2687 -279.12 82.3416C-264.371 82.801 -288.865 78.4484 -278.57 84.3291C-287.053 82.1939 -281.35 85.0566 -282.66 85.8054C-284.062 86.6031 -288.857 85.7353 -288.616 87.1743C-288.614 87.1743 -288.611 87.1743 -288.608 87.1743C-285.674 87.0739 -282.738 86.9736 -279.803 86.8735C-282.676 83.769 -276.677 84.7008 -274.644 87.2304C-273.809 86.5995 -272.969 85.9685 -272.136 85.3376ZM-288.746 82.4206C-288.456 82.4917 -282.071 82.0576 -282.485 81.4346C-283.339 81.037 -292.396 81.5123 -288.746 82.4206ZM-316.845 83.0971C-314.552 83.1047 -311.006 83.7104 -309.758 82.54C-312.051 82.5321 -315.596 81.9261 -316.845 83.0971ZM-198.804 83.3552C-195.876 82.3955 -204.882 82.1089 -202.277 83.247C-202.142 83.3006 -198.953 83.4001 -198.804 83.3552ZM-265.49 84.7554C-265.013 84.9451 -264.65 85.0075 -264.384 84.9826C-263.516 84.902 -263.686 83.8987 -264.389 83.3483C-264.806 83.0135 -265.423 82.8465 -266.124 83.1573C-266.252 83.2149 -265.627 84.7015 -265.49 84.7554ZM700.372 82.8856C700.174 83.8066 692.154 83.1726 690.733 83.1829C691.539 82.3258 700.598 81.8298 700.372 82.8856ZM-320.88 86.5414C-316.317 89.852 -310.127 86.0284 -309.449 86.1119C-308.774 86.1971 -309.833 87.6442 -309.679 87.683C-309.327 87.7642 -302.141 87.6431 -301.792 87.5424C-301.544 87.4639 -302.843 85.4302 -301.361 84.7896C-304.254 85.9449 -317.395 85.2217 -318.077 85.4471C-318.605 85.627 -314.622 87.7626 -320.872 86.5414C-320.874 86.5414 -320.877 86.5414 -320.88 86.5414ZM-307.753 86.5551C-309.549 85.7026 -304.511 85.5961 -303.295 85.9108C-300.586 86.6149 -307.521 86.6561 -307.753 86.5551ZM-295.641 87.3414C-295.067 87.5326 -289.879 87.7068 -289.435 86.7579C-291.892 85.5265 -296.946 86.8958 -295.641 87.3414ZM-237.9 87.2342C-236.545 87.1134 -232.843 87.8445 -232.63 87.0153C-233.98 87.1356 -237.682 86.405 -237.9 87.2342ZM673.023 90.1668C675.264 90.8572 670.076 91.1489 668.561 90.8185C668.478 90.2654 672.833 90.1075 673.023 90.1668ZM-264.989 92.685C-264.915 92.7085 -264.706 92.7244 -264.387 92.7336C-261.277 92.8237 -247.695 92.281 -245.626 91.93C-247.707 91.3435 -261.917 91.2547 -264.394 91.4941C-264.563 91.5112 -264.679 91.53 -264.728 91.5504C-264.941 91.6419 -265.091 92.6452 -264.989 92.685ZM-300.195 93.0615C-301.691 94.2826 -302.661 92.8179 -302.851 92.7995C-304.696 92.6125 -308.526 92.8877 -307.686 91.7116C-304.426 92.1862 -297.224 90.6366 -300.195 93.0615ZM-236.742 92.7606C-231.219 92.3102 -241.828 91.0182 -240.441 92.2953C-240.347 92.3726 -237.32 92.8078 -236.742 92.7606ZM-266.808 93.0402C-268.029 94.0263 -284.309 93.1717 -286.924 93.1702C-284.581 91.3505 -282.695 92.7332 -279.55 92.641C-278.701 92.6139 -278.928 91.8567 -278.837 91.8555C-277.369 91.8208 -278.468 92.695 -277.561 92.7085C-276.988 92.7144 -265.092 91.6503 -266.808 93.0402ZM-301.048 93.9074C-301.959 94.6074 -312.126 94.9054 -312.537 94.7194C-315.598 93.3357 -301.838 93.6636 -301.048 93.9074ZM-265.314 94.6588C-267.066 96.7734 -275.151 95.3547 -269.617 94.3016C-269.088 94.2059 -266.853 95.1234 -265.314 94.6588ZM-237.335 94.7745C-237.059 94.8369 -231.302 95.2626 -231.196 94.5896C-232.025 94.3277 -240.436 94.0887 -237.335 94.7745ZM-240.324 97.049C-240.186 97.0329 -241.535 95.736 -238.833 95.9017C-238.611 95.9172 -238.184 97.3759 -234.793 96.8437C-234.101 96.7341 -233.032 95.7699 -233.109 95.7099C-236.647 93.4195 -247.3 97.7972 -240.324 97.049ZM-301.235 95.0891C-300.687 95.7047 -302.006 97.5317 -303.2 96.6064C-303.712 96.2068 -302.755 95.1104 -301.235 95.0891ZM-219.055 95.3739C-222.406 96.4806 -211.883 96.6943 -211.349 96.4107C-211.688 95.7204 -218.72 95.2658 -219.055 95.3739ZM667.793 98.7289C667.796 98.7289 667.799 98.7289 667.801 98.7289C664.982 98.4823 666.726 97.5578 666.594 97.529C660.588 96.1846 662.184 98.2699 661.245 98.5178C659.233 99.0538 659.553 96.5144 656.159 97.5724C661.77 96.0091 656.661 96.6688 656.501 95.7658C655.866 92.0806 663.978 97.48 666.775 96.7029C667.165 96.5953 664.284 95.4234 665.283 95.0872C668.529 93.9976 678.611 99.6719 667.793 98.7289ZM-304.119 96.7675C-305.426 97.8501 -315.345 96.7997 -312.715 95.9078C-312.292 95.7647 -302.197 95.1894 -304.119 96.7675ZM159.296 98.2422C156.916 99.1813 162.444 100.278 163.475 99.5476C163.99 99.1838 160.332 97.83 159.296 98.2422ZM198.078 102.212C200.914 102.019 203.83 98.1084 200.359 98.7186C199.992 98.7853 197.754 101.671 198.078 102.212ZM11.9389 100.35C14.924 101.744 14.7672 99.15 12.5486 99.1879C11.7795 99.2009 11.8473 100.306 11.9389 100.35ZM124.909 99.9362C125.205 100.027 128.625 99.8582 128.5 99.2619C127.235 98.9052 122.994 99.316 124.909 99.9362ZM11.0147 100.72C12.194 100.399 11.1595 99.4232 9.77775 99.4216C9.11137 99.4208 8.34983 99.6298 7.67167 100.211C8.23576 100.133 9.07786 100.286 9.77836 100.444C10.4023 100.591 10.9303 100.743 11.0147 100.72ZM-259.206 100.396C-257.754 99.3312 -253.581 99.6554 -251.201 99.4736C-250.931 100.854 -257.522 100.146 -259.206 100.396ZM186.013 100.654C188.709 99.6785 182.964 98.8879 183.497 100.173C183.573 100.243 185.908 100.696 186.013 100.654ZM-83.444 100.898C-81.4907 100.075 -87.6923 98.969 -85.9854 100.416C-85.9024 100.475 -83.5523 100.944 -83.444 100.898ZM-110.473 100.428C-109.016 100.706 -102.683 100.619 -105.141 99.8163C-105.535 99.6929 -110.368 99.6743 -110.473 100.428ZM661.08 99.5117C661.879 100.928 657.254 100.598 656.591 100.351C656.331 100.249 660.038 97.6686 661.08 99.5117ZM31.1739 100.56C32.796 100.381 36.6327 100.716 37.3704 99.9715C35.4899 100.127 30.6927 99.0781 31.1739 100.56ZM173.804 100.673C176.126 102.211 180.128 102.055 179.138 100.043C174.701 100.182 179.673 101.852 173.804 100.673ZM1.21793 102.384C2.4528 102.501 3.38627 100.567 3.24857 100.476C1.92509 99.6099 -0.0113144 101.632 1.21793 102.384ZM93.2964 100.732C93.3648 101.559 97.3192 101.181 96.7921 100.649C96.6161 100.471 93.2364 100.064 93.2964 100.732ZM-207.681 100.89C-205.875 101.645 -211.389 102.38 -213.016 101.499C-213.808 100.231 -207.916 100.804 -207.681 100.89ZM-32.8325 101.916C-33.0222 103.142 -26.857 102.446 -29.2841 101.431C-29.888 101.177 -32.7754 101.506 -32.8325 101.916ZM-91.7174 103.405C-87.5938 101.942 -104.911 100.908 -100.36 102.729C-100.035 102.859 -92.0712 103.529 -91.7174 103.405ZM-120.007 102.499C-119.308 102.659 -119.625 106.78 -122.602 105.191C-122.99 104.986 -121.172 103.896 -121.49 103.647C-121.69 103.505 -128.08 102.928 -128.383 103.024C-128.7 103.133 -128.327 104.454 -128.648 104.602C-128.995 104.767 -132.973 103.608 -135.008 103.596C-138.929 103.575 -139.318 104.674 -139.638 104.678C-140.559 104.685 -142.163 103.905 -144.015 103.907C-147.779 103.911 -152.266 104.058 -156.809 104.093C-163.872 104.147 -171.008 103.934 -175.579 102.52C-169.219 103.409 -163.128 102.557 -156.812 102.207C-156.485 102.189 -156.157 102.172 -155.826 102.156C-157.782 104.451 -146.046 100.387 -152.879 103.035C-149.77 102.461 -122.309 101.996 -120.015 102.499C-120.012 102.499 -120.009 102.499 -120.007 102.499ZM209.239 103.355C207.457 104.764 216.504 104.436 217.183 102.808C216.067 102.584 209.446 103.195 209.239 103.355ZM168.031 106.828C167.204 107.072 166.437 109.822 162.071 108.432C162.067 108.432 162.063 108.432 162.059 108.432C160.781 108.026 162.237 107.354 162.003 107.116C161.917 107.018 157.928 105.654 161.24 105.431C166.282 105.089 161.719 107.476 164.403 107.503C164.741 107.505 169.766 106.012 169.491 105.686C169.455 105.647 167.936 105.964 167.687 105.828C166.74 105.319 167.2 104.46 167.067 104.419C166.648 104.315 158.588 105.785 157.445 104.508C157.055 104.097 170.206 103.134 170.739 103.348C171.065 103.482 170.93 105.866 171.268 106.1C171.449 106.217 176.733 105.319 177.404 105.537C177.6 105.6 177.758 105.668 177.871 105.725C177.065 104.988 181.893 105.036 181.739 105.868C181.66 106.196 178.343 106.01 178.22 105.952C178.167 105.928 178.122 105.895 178.079 105.872C178.762 106.77 167.604 106.74 170.009 108.075C166.758 108.811 170.452 106.113 168.031 106.828ZM152.468 108.313C152.804 108.062 153.139 107.811 153.474 107.56C147.801 108.178 141.26 106.977 134.728 106.992C133.069 106.993 134.978 108.525 132.804 108.108C131.064 107.773 129.137 106.353 130.083 106.035C130.314 105.956 133.856 106.879 135.632 106.783C140.869 106.497 139.542 105.183 139.849 105.148C140.185 105.11 143.481 106.032 145.285 105.989C149.805 105.879 151.881 105.07 158.055 106.119C154.496 106.989 156.452 108.869 152.468 108.313ZM-58.8093 105.645C-59.0245 106.472 -62.735 105.739 -64.0823 105.861C-63.8708 105.032 -60.158 105.767 -58.8093 105.645ZM493.907 106.082C495.044 104.722 486.506 104.399 488.757 105.526C489.256 105.776 492.834 106.074 493.907 106.082ZM455.551 105.317C454.409 105.694 459.01 106.664 459 105.613C458.992 105.276 455.698 105.268 455.551 105.317ZM79.1906 107.034C78.9685 107.076 75.8071 106.776 75.7119 106.707C73.6219 105.267 83.9959 106.093 79.1906 107.034ZM408.927 107.063C412.907 106.166 400.924 105.8 404.587 106.929C404.77 106.984 408.736 107.106 408.927 107.063ZM392.273 107.337C393.227 107.288 397.466 107.723 397.521 107.309C397.604 106.64 392.753 106.191 392.273 107.337ZM0.385841 107.514C0.838905 109.043 -4.74636 107.888 -6.68191 108.081C-7.15585 106.551 -1.54 107.708 0.385841 107.514ZM35.6117 108.62C12.0172 109.841 17.2727 106.569 37.0126 107.874C37.0433 108.856 37.0915 108.544 35.6117 108.62ZM5.49461 108.458C6.20475 107.653 8.13969 107.703 9.78275 107.79C10.1294 107.809 10.4687 107.83 10.7841 107.843C10.6902 108.047 10.3018 108.168 9.783 108.243C8.51896 108.417 6.42039 108.334 5.49461 108.458ZM504.077 108.167C502.601 109.408 496.056 107.892 497.218 107.379C497.489 107.268 504.618 107.485 504.077 108.167ZM77.2008 108.344C77.7297 109.832 70.7113 109.23 70.1421 108.9C67.9704 107.572 76.608 108.673 77.2008 108.344ZM-33.059 108.838C-34.2995 110.004 -37.8646 109.406 -40.1374 109.391C-39.1043 108.395 -34.9879 108.818 -33.059 108.838ZM-16.5813 109.744C-16.7204 109.789 -19.9027 109.685 -20.049 109.632C-22.6571 108.495 -13.6589 108.782 -16.5813 109.744ZM671.719 109.915C671.613 109.953 669.203 109.882 669.119 109.839C666.966 108.723 674.2 108.94 671.719 109.915Z" fill="url(#paint0_linear_246_15)"/>
<defs>
<linearGradient id="paint0_linear_246_15" x1="707" y1="55.3693" x2="-332" y2="55.3692" gradientUnits="userSpaceOnUse">
<stop offset="0.576923" stop-color="#FF7C35"/>
<stop offset="1" stop-color="#FF5A00"/>
</linearGradient>
</defs>
</svg>
